Familjen Macahan (1976)

Aret är 1861 och inbördeskriget håller på att bryta ut. Familjen Macahan vill ta sig västerut för att starta ett nytt liv. Deras egensinnige farbror Zeb visar dem vägen. Men det är en lång och farlig resa...

Originaltitel
The Macahans

Land, år, längd
USA år 1976, 120 min

RegissörKategor
Bernard McEveety

Manus
Jim Byrnes

Skådespelare
James Arness - Zeb Macahan
Richard Kiley - Timothy Macahan
Eva Marie Saint - Kate Macahan
Bruce Boxleitner - Luke Macahan
William Kirby Cullen - Josh Macahan
Kathryn Holcomb - Laura Macahan
Vicki Schreck - Jessie Macahan
Victor Mohica - Billy Joe
Gene Evans - Dutton
Jonathan Banks - Woodward
Frank Ferguson
Ann Doran
Ben Wilson
Mel Stewens
Rudy Diaz
John Crawford
Vincent St. Cyr
F. Allen Livers
Jim Ward
Skip Lowell
Tom Stovall

Produktions info
Edward R. Plante - FOTO

Robbe Roberts - Klippning

Jerrold Immel - Musik

Jim Byrnes - Producent

Carl Anderson - Scenografi


Family Macahans (Swe sub) - Season 1 
Format                           : AVI
Format/Info                      : Audio Video Interleave
File size                        : 797 MiB
Duration                         : 1h 34mn
Overall bit rate                 : 1 185 Kbps
Writing application              : VirtualDubMod 1.5.10.2 (build 2540/release)
Writing library                  : VirtualDubMod build 2540/release

Video
ID                               : 0
Format                           : MPEG-4 Visual
Format profile                   : Advanced Simple@L5
Format settings, BVOP            : Yes
Format settings, QPel            : No
Format settings, GMC             : No warppoints
Format settings, Matrix          : Default (H.263)
Muxing mode                      : Packed bitstream
Codec ID                         : XVID
Codec ID/Hint                    : XviD
Duration                         : 1h 34mn
Bit rate                         : 1 035 Kbps
Width                            : 512 pixels
Height                           : 368 pixels
Display aspect ratio             : 1.391
Frame rate                       : 25.000 fps
Color space                      : YUV
Chroma subsampling               : 4:2:0
Bit depth                        : 8 bits
Scan type                        : Progressive
Bits/(Pixel*Frame)               : 0.220
Stream size                      : 696 MiB (87%)
Writing library                  : XviD 1.0.3 (UTC 2004-12-20)

Audio
ID                               : 1
Format                           : MPEG Audio
Format version                   : Version 1
Format profile                   : Layer 3
Mode                             : Joint stereo
Mode extension                   : MS Stereo
Codec ID                         : 55
Codec ID/Hint                    : MP3
Duration                         : 1h 34mn
Bit rate mode                    : Variable
Bit rate                         : 137 Kbps
Nominal bit rate                 : 128 Kbps
Channel(s)                       : 2 channels
Sampling rate                    : 48.0 KHz
Stream size                      : 92.3 MiB (12%)
Alignment                        : Aligned on interleaves
Interleave, duration             : 24 ms (0.60 video frame)
Interleave, preload duration     : 246 ms
Writing library                  : LAME3.90.
Encoding settings                : -m j -V 4 -q 2 -lowpass 17.6 --abr 128


